<?xml version="1.0" encoding="utf-8"?>
<!-- Generator: Adobe Illustrator 23.0.1, SVG Export Plug-In . SVG Version: 6.00 Build 0)  -->
<svg version="1.1" id="Layer_1" xmlns="http://www.w3.org/2000/svg" xmlns:xlink="http://www.w3.org/1999/xlink" x="0px" y="0px"
	 viewBox="0 0 540 102" style="enable-background:new 0 0 540 102;" xml:space="preserve">
<style type="text/css">
	.st0{fill:#FFFFFF;stroke:#67A7FF;stroke-miterlimit:10;}
	.st1{fill:#67A7FF;}
	.st2{font-family:'Impact';}
	.st3{font-size:57px;}
</style>
<g>
	<path d="M130.4,74.4h-2.9v-39h2.9V74.4z"/>
	<path d="M178.1,74.4h-2.9V40.1l-14,34.4h-3l-14-34.4v34.4h-2.9v-39h4.1l14.2,35.5L174,35.4h4.1V74.4z"/>
	<path d="M218.8,74.4h-3.4l-4.8-12.5h-19.2c-0.7,2-1.4,4.1-2.2,6.3c-0.8,2.2-1.6,4.3-2.3,6.3h-3c1.3-3.4,2.5-6.7,3.8-9.9
		c1.2-3.2,2.5-6.4,3.7-9.6c1.2-3.2,2.5-6.4,3.7-9.6c1.2-3.2,2.5-6.5,3.8-9.9h4L218.8,74.4z M209.8,59.6l-9.1-21.7l-8.6,21.7H209.8z"
		/>
	<path d="M241.6,75.1c-2.8,0-5.3-0.5-7.6-1.5c-2.3-1-4.3-2.3-5.9-4.1s-2.9-3.9-3.8-6.4c-0.9-2.5-1.3-5.3-1.3-8.4
		c0-3.1,0.5-5.9,1.4-8.3c0.9-2.5,2.2-4.6,3.8-6.3c1.6-1.7,3.6-3.1,5.8-4c2.3-0.9,4.8-1.4,7.5-1.4c2.1,0,4.1,0.3,6,0.8
		c1.9,0.5,3.5,1.3,5,2.3c1.4,1,2.6,2.2,3.6,3.5c1,1.4,1.6,2.9,2,4.6h-3.1c-0.2-1.1-0.6-2.2-1.4-3.2c-0.7-1-1.7-1.9-2.8-2.7
		c-1.2-0.8-2.5-1.4-4.1-1.8c-1.5-0.5-3.2-0.7-5.1-0.7c-2.3,0-4.4,0.4-6.3,1.1c-1.9,0.7-3.5,1.8-4.9,3.3c-1.4,1.5-2.4,3.3-3.2,5.4
		c-0.8,2.2-1.1,4.6-1.1,7.4c0,2.8,0.4,5.3,1.1,7.4c0.8,2.2,1.8,4,3.2,5.5c1.4,1.5,3,2.6,4.9,3.4c1.9,0.8,4,1.2,6.3,1.2
		c3.2,0,6-0.6,8.4-1.9c2.4-1.2,4.4-2.9,6-5.1v-7h-10.8v-2.9h13.6v19h-1.6l-1.2-5.2c-0.9,1.1-1.9,2-3,2.8c-1.1,0.7-2.3,1.4-3.5,1.8
		c-1.2,0.5-2.5,0.8-3.8,1C244.3,75,243,75.1,241.6,75.1z"/>
	<path d="M296.2,74.4h-28.2v-39h27.2v2.9h-24.4v14.4h22.8v2.9h-22.8v16h25.3V74.4z"/>
	<path d="M336.3,74.4h-3.1l-3.9-10.4c-0.4-1-0.8-1.9-1.3-2.8c-0.5-0.9-1-1.6-1.6-2.3s-1.3-1.2-2.1-1.6c-0.8-0.4-1.7-0.6-2.8-0.6
		h-13.7v17.6h-2.9v-39h17.6c1.6,0,3.2,0.1,4.8,0.4s2.9,0.8,4.1,1.6c1.2,0.8,2.2,1.8,2.9,3.2c0.7,1.3,1.1,3.1,1.1,5.2
		c0,1.3-0.2,2.5-0.5,3.7s-0.8,2.1-1.5,3c-0.7,0.9-1.5,1.7-2.5,2.3c-1,0.6-2.2,1.1-3.5,1.4c0.7,0.6,1.3,1.1,1.8,1.6
		c0.5,0.5,0.9,1.1,1.2,1.7c0.3,0.6,0.7,1.2,0.9,2s0.6,1.5,0.9,2.5L336.3,74.4z M307.8,54h13.5c1.9,0,3.6-0.1,5-0.4
		c1.4-0.3,2.5-0.8,3.4-1.4c0.9-0.7,1.6-1.5,2-2.5s0.6-2.3,0.6-3.8c0-2.7-0.8-4.6-2.5-5.8s-4.2-1.7-7.6-1.7h-14.4V54z"/>
	<path d="M373.2,74.4H345v-39h27.2v2.9h-24.4v14.4h22.8v2.9h-22.8v16h25.3V74.4z"/>
	<path d="M396.3,75.1c-2.6,0-4.9-0.3-6.9-0.8c-2-0.6-3.6-1.4-5-2.4c-1.3-1-2.4-2.3-3.1-3.7c-0.7-1.5-1.1-3.1-1.2-4.9h2.8
		c0.3,1.8,0.8,3.2,1.6,4.4c0.8,1.2,1.8,2.1,2.9,2.8c1.2,0.7,2.5,1.2,3.9,1.5c1.5,0.3,3,0.4,4.7,0.4c1.7,0,3.3-0.2,4.7-0.6
		c1.4-0.4,2.6-0.9,3.6-1.6c1-0.7,1.7-1.5,2.3-2.5c0.5-1,0.8-2.1,0.8-3.3c0-1.3-0.2-2.4-0.7-3.3c-0.5-0.9-1.2-1.7-2.3-2.3
		c-1.1-0.7-2.5-1.3-4.2-1.8c-1.7-0.5-3.9-1.1-6.5-1.6c-2.1-0.5-4-1-5.5-1.6c-1.5-0.6-2.8-1.3-3.8-2.2c-1-0.8-1.7-1.8-2.2-2.8
		c-0.5-1.1-0.7-2.3-0.7-3.7c0-1.5,0.3-2.9,1-4.2c0.6-1.3,1.6-2.3,2.7-3.2c1.2-0.9,2.6-1.6,4.2-2.1c1.7-0.5,3.5-0.7,5.5-0.7
		s3.8,0.2,5.5,0.7c1.7,0.5,3.1,1.1,4.4,2c1.2,0.9,2.3,1.9,3,3.2c0.8,1.3,1.3,2.7,1.5,4.3h-2.7c-0.3-1-0.7-2-1.3-2.9
		c-0.6-0.9-1.4-1.7-2.3-2.3c-0.9-0.7-2.1-1.2-3.4-1.5c-1.3-0.4-2.8-0.6-4.4-0.6c-3.5,0-6.1,0.6-7.9,1.9s-2.7,3-2.7,5.3
		c0,1,0.2,1.9,0.5,2.7c0.3,0.8,0.9,1.4,1.7,2c0.8,0.6,1.8,1.1,3.2,1.6c1.3,0.5,2.9,0.9,4.9,1.3c1.1,0.2,2.3,0.5,3.5,0.7
		c1.2,0.3,2.4,0.6,3.5,0.9s2.3,0.8,3.3,1.3c1,0.5,2,1.2,2.7,1.9c0.8,0.8,1.4,1.7,1.9,2.7c0.5,1.1,0.7,2.3,0.7,3.8
		c0,1.7-0.4,3.2-1.1,4.6c-0.7,1.4-1.7,2.6-2.9,3.6c-1.2,1-2.7,1.8-4.5,2.4C400.2,74.9,398.3,75.1,396.3,75.1z"/>
	<path d="M423,74.4h-2.9v-39h2.9V74.4z"/>
	<path d="M460.9,74.4h-30v-3.8l26.3-32.4h-24v-2.9h26.9v3.8l-26.4,32.4h27.1V74.4z"/>
	<path d="M496.4,74.4h-28.2v-39h27.2v2.9H471v14.4h22.8v2.9H471v16h25.3V74.4z"/>
	<path d="M536.4,74.4h-3.1l-3.9-10.4c-0.4-1-0.8-1.9-1.3-2.8c-0.5-0.9-1-1.6-1.6-2.3c-0.6-0.7-1.3-1.2-2.1-1.6
		c-0.8-0.4-1.7-0.6-2.8-0.6h-13.7v17.6h-2.9v-39h17.6c1.6,0,3.2,0.1,4.8,0.4c1.5,0.3,2.9,0.8,4.1,1.6c1.2,0.8,2.2,1.8,2.9,3.2
		c0.7,1.3,1.1,3.1,1.1,5.2c0,1.3-0.2,2.5-0.5,3.7c-0.3,1.1-0.8,2.1-1.5,3c-0.7,0.9-1.5,1.7-2.5,2.3c-1,0.6-2.2,1.1-3.5,1.4
		c0.7,0.6,1.3,1.1,1.8,1.6s0.9,1.1,1.2,1.7c0.3,0.6,0.7,1.2,0.9,2c0.3,0.7,0.6,1.5,0.9,2.5L536.4,74.4z M507.9,54h13.5
		c1.9,0,3.6-0.1,5-0.4s2.5-0.8,3.4-1.4c0.9-0.7,1.6-1.5,2-2.5s0.6-2.3,0.6-3.8c0-2.7-0.8-4.6-2.5-5.8s-4.2-1.7-7.6-1.7h-14.4V54z"/>
</g>
<rect x="0.5" y="0.5" class="st0" width="101" height="101"/>
<text transform="matrix(1 0 0 1 26 74.085)" class="st1 st2 st3">EZ</text>
</svg>
